<?xml version="1.0" encoding="UTF-8"?><svg xmlns="http://www.w3.org/2000/svg" xmlns:xlink="http://www.w3.org/1999/xlink" fill-opacity="1" color-rendering="auto" color-interpolation="auto" text-rendering="auto" stroke="black" stroke-linecap="square" width="816" stroke-miterlimit="10" shape-rendering="auto" stroke-opacity="1" fill="black" stroke-dasharray="none" font-weight="normal" stroke-width="1" height="523" font-family="'Dialog'" font-style="normal" stroke-linejoin="miter" font-size="12px" stroke-dashoffset="0" image-rendering="auto">
  <!--Generated by ySVG 2.6-->
  <defs id="genericDefs"/>
  <g>
    <defs id="defs1">
      <clipPath clipPathUnits="userSpaceOnUse" id="clipPath1">
        <path d="M0 0 L816 0 L816 523 L0 523 L0 0 Z"/>
      </clipPath>
      <clipPath clipPathUnits="userSpaceOnUse" id="clipPath2">
        <path d="M232 -67 L1048 -67 L1048 456 L232 456 L232 -67 Z"/>
      </clipPath>
      <clipPath clipPathUnits="userSpaceOnUse" id="clipPath3">
        <path d="M428.138 -517.604 L428.138 298.396 L-94.862 298.396 L-94.862 -517.604 L428.138 -517.604 Z"/>
      </clipPath>
      <clipPath clipPathUnits="userSpaceOnUse" id="clipPath4">
        <path d="M293.1842 -162.604 L293.1842 653.396 L-229.8158 653.396 L-229.8158 -162.604 L293.1842 -162.604 Z"/>
      </clipPath>
      <clipPath clipPathUnits="userSpaceOnUse" id="clipPath5">
        <path d="M278.102 -541.354 L278.102 274.646 L-244.898 274.646 L-244.898 -541.354 L278.102 -541.354 Z"/>
      </clipPath>
    </defs>
    <g fill="white" text-rendering="geometricPrecision" shape-rendering="geometricPrecision" transform="translate(-232,67)" stroke="white">
      <rect x="232" width="816" height="523" y="-67" clip-path="url(#clipPath2)" stroke="none"/>
    </g>
    <g fill="yellow" text-rendering="geometricPrecision" shape-rendering="geometricPrecision" transform="matrix(1,0,0,1,-232,67)" stroke="yellow">
      <rect x="247.5" y="98" clip-path="url(#clipPath2)" width="105" rx="4" ry="4" height="44" stroke="none"/>
    </g>
    <g font-size="16px" stroke-linecap="butt" transform="matrix(1,0,0,1,-232,67)" text-rendering="geometricPrecision" font-family="sans-serif" shape-rendering="geometricPrecision" stroke-miterlimit="1.45">
      <text x="262.3279" xml:space="preserve" y="126.208" clip-path="url(#clipPath2)" stroke="none">dto:Travel</text>
      <rect x="247.5" y="98" clip-path="url(#clipPath2)" fill="none" width="105" rx="4" ry="4" height="44"/>
    </g>
    <g fill="yellow" text-rendering="geometricPrecision" shape-rendering="geometricPrecision" transform="matrix(1,0,0,1,-232,67)" stroke="yellow">
      <rect x="502.5" y="248" clip-path="url(#clipPath2)" width="195" rx="4" ry="4" height="44" stroke="none"/>
    </g>
    <g font-size="16px" stroke-linecap="butt" transform="matrix(1,0,0,1,-232,67)" text-rendering="geometricPrecision" font-family="sans-serif" shape-rendering="geometricPrecision" stroke-miterlimit="1.45">
      <text x="520.6878" xml:space="preserve" y="276.208" clip-path="url(#clipPath2)" stroke="none">frbroo:F2_Expression</text>
      <rect x="502.5" y="248" clip-path="url(#clipPath2)" fill="none" width="195" rx="4" ry="4" height="44"/>
    </g>
    <g fill="yellow" text-rendering="geometricPrecision" shape-rendering="geometricPrecision" transform="matrix(1,0,0,1,-232,67)" stroke="yellow">
      <rect x="827.5" y="247.5" clip-path="url(#clipPath2)" width="205" rx="4" ry="4" height="44" stroke="none"/>
    </g>
    <g font-size="16px" stroke-linecap="butt" transform="matrix(1,0,0,1,-232,67)" text-rendering="geometricPrecision" font-family="sans-serif" shape-rendering="geometricPrecision" stroke-miterlimit="1.45">
      <text x="842.7838" xml:space="preserve" y="275.708" clip-path="url(#clipPath2)" stroke="none">earmark:URIDocuverse</text>
      <rect x="827.5" y="247.5" clip-path="url(#clipPath2)" fill="none" width="205" rx="4" ry="4" height="44"/>
    </g>
    <g fill="rgb(204,255,204)" text-rendering="geometricPrecision" shape-rendering="geometricPrecision" transform="matrix(1,0,0,1,-232,67)" stroke="rgb(204,255,204)">
      <path d="M879.562 397.5 L993.0475 397.5 L980.438 440.5 L866.9525 440.5 Z" fill-rule="evenodd" clip-path="url(#clipPath2)" stroke="none"/>
    </g>
    <g font-size="16px" stroke-linecap="butt" transform="matrix(1,0,0,1,-232,67)" text-rendering="geometricPrecision" font-family="sans-serif" shape-rendering="geometricPrecision" stroke-miterlimit="1.45">
      <text x="887.8239" xml:space="preserve" y="425.208" clip-path="url(#clipPath2)" stroke="none">xsd:anyURI</text>
      <path fill="none" d="M879.562 397.5 L993.0475 397.5 L980.438 440.5 L866.9525 440.5 Z" fill-rule="evenodd" clip-path="url(#clipPath2)"/>
    </g>
    <g fill="yellow" text-rendering="geometricPrecision" shape-rendering="geometricPrecision" transform="matrix(1,0,0,1,-232,67)" stroke="yellow">
      <rect x="835" y="97.5" clip-path="url(#clipPath2)" width="190" rx="4" ry="4" height="44" stroke="none"/>
    </g>
    <g font-size="16px" stroke-linecap="butt" transform="matrix(1,0,0,1,-232,67)" text-rendering="geometricPrecision" font-family="sans-serif" shape-rendering="geometricPrecision" stroke-miterlimit="1.45">
      <text x="850.3198" xml:space="preserve" y="125.708" clip-path="url(#clipPath2)" stroke="none">earmark:XPathRange</text>
      <rect x="835" y="97.5" clip-path="url(#clipPath2)" fill="none" width="190" rx="4" ry="4" height="44"/>
    </g>
    <g fill="rgb(204,255,204)" text-rendering="geometricPrecision" shape-rendering="geometricPrecision" transform="matrix(1,0,0,1,-232,67)" stroke="rgb(204,255,204)">
      <path d="M879.562 -51.5 L993.0475 -51.5 L980.438 -8.5 L866.9525 -8.5 Z" fill-rule="evenodd" clip-path="url(#clipPath2)" stroke="none"/>
    </g>
    <g font-size="16px" stroke-linecap="butt" transform="matrix(1,0,0,1,-232,67)" text-rendering="geometricPrecision" font-family="sans-serif" shape-rendering="geometricPrecision" stroke-miterlimit="1.45">
      <text x="892.9199" xml:space="preserve" y="-23.792" clip-path="url(#clipPath2)" stroke="none">xsd:string</text>
      <path fill="none" d="M879.562 -51.5 L993.0475 -51.5 L980.438 -8.5 L866.9525 -8.5 Z" fill-rule="evenodd" clip-path="url(#clipPath2)"/>
    </g>
    <g fill="yellow" text-rendering="geometricPrecision" shape-rendering="geometricPrecision" transform="matrix(1,0,0,1,-232,67)" stroke="yellow">
      <rect x="462.5" y="98" clip-path="url(#clipPath2)" width="275" rx="4" ry="4" height="44" stroke="none"/>
    </g>
    <g font-size="16px" stroke-linecap="butt" transform="matrix(1,0,0,1,-232,67)" text-rendering="geometricPrecision" font-family="sans-serif" shape-rendering="geometricPrecision" stroke-miterlimit="1.45">
      <text x="475.8717" xml:space="preserve" y="126.208" clip-path="url(#clipPath2)" stroke="none">frbroo:F23_Expression_Fragment</text>
      <rect x="462.5" y="98" clip-path="url(#clipPath2)" fill="none" width="275" rx="4" ry="4" height="44"/>
    </g>
    <g stroke-linecap="butt" transform="matrix(1,0,0,1,-232,67)" fill="navy" text-rendering="geometricPrecision" shape-rendering="geometricPrecision" stroke="navy" stroke-miterlimit="1.45">
      <path fill="none" d="M701.5256 269.8462 L816.5262 269.6719" clip-path="url(#clipPath2)"/>
      <path d="M693.5256 269.8583 C693.5223 267.6492 695.3104 265.8556 697.5196 265.8522 C699.7287 265.8489 701.5223 267.637 701.5256 269.8462 C701.529 272.0553 699.7408 273.8489 697.5317 273.8522 C695.3226 273.8556 693.529 272.0674 693.5256 269.8583 Z" clip-path="url(#clipPath2)" stroke="none"/>
      <path d="M827.5262 269.6553 L815.5172 263.6735 L815.5353 275.6734 Z" clip-path="url(#clipPath2)" stroke="none"/>
    </g>
    <g stroke-linecap="butt" transform="matrix(-0,-1,1,-0,517.604,428.138)" fill="white" text-rendering="geometricPrecision" shape-rendering="geometricPrecision" stroke="white" stroke-miterlimit="1.45">
      <rect x="0" width="182.7684" height="25.792" y="0" clip-path="url(#clipPath3)" stroke="none"/>
    </g>
    <g stroke-linecap="butt" font-size="16px" transform="matrix(-0,-1,1,-0,517.604,428.138)" fill="navy" text-rendering="geometricPrecision" font-family="sans-serif" shape-rendering="geometricPrecision" stroke="navy" stroke-miterlimit="1.45">
      <text x="2" xml:space="preserve" y="19.104" clip-path="url(#clipPath3)" stroke="none">crm:P128i_is_carried_by</text>
    </g>
    <g stroke-linecap="butt" transform="matrix(1,0,0,1,-232,67)" fill="green" text-rendering="geometricPrecision" shape-rendering="geometricPrecision" stroke="green" stroke-miterlimit="1.45">
      <path fill="none" d="M930 295.5089 L930 382.4921" clip-path="url(#clipPath2)"/>
    </g>
    <g stroke-linecap="butt" transform="matrix(1,0,0,1,-232,67)" fill-opacity="0" fill="rgb(0,0,0)" text-rendering="geometricPrecision" shape-rendering="geometricPrecision" stroke="rgb(0,0,0)" stroke-opacity="0" stroke-miterlimit="1.45">
      <path d="M930 287.5089 C932.2092 287.5089 934 289.2998 934 291.5089 C934 293.718 932.2092 295.5089 930 295.5089 C927.7908 295.5089 926 293.718 926 291.5089 C926 289.2998 927.7908 287.5089 930 287.5089 Z" stroke="none" clip-path="url(#clipPath2)"/>
    </g>
    <g stroke-linecap="butt" transform="matrix(1,0,0,1,-232,67)" fill="green" text-rendering="geometricPrecision" shape-rendering="geometricPrecision" stroke="green" stroke-miterlimit="1.45">
      <path fill="none" d="M930 287.5089 C932.2092 287.5089 934 289.2998 934 291.5089 C934 293.718 932.2092 295.5089 930 295.5089 C927.7908 295.5089 926 293.718 926 291.5089 C926 289.2998 927.7908 287.5089 930 287.5089 Z" clip-path="url(#clipPath2)"/>
      <path fill="white" d="M930 397.4921 L936 381.4921 L924 381.4921 Z" clip-path="url(#clipPath2)" stroke="none"/>
      <path fill="none" d="M930 397.4921 L936 381.4921 L924 381.4921 Z" clip-path="url(#clipPath2)"/>
      <rect x="850.6718" y="331.604" clip-path="url(#clipPath2)" fill="white" width="158.6563" height="25.792" stroke="none"/>
      <text x="852.6719" font-size="16px" y="350.708" clip-path="url(#clipPath2)" font-family="sans-serif" stroke="none" xml:space="preserve">earmark:hasContent</text>
      <path fill="none" d="M930 145.5093 L930 236.4704" clip-path="url(#clipPath2)" stroke="navy"/>
      <path fill="navy" d="M930 137.5093 C932.2092 137.5093 934 139.3001 934 141.5093 C934 143.7184 932.2092 145.5093 930 145.5093 C927.7908 145.5093 926 143.7184 926 141.5093 C926 139.3001 927.7908 137.5093 930 137.5093 Z" clip-path="url(#clipPath2)" stroke="none"/>
      <path fill="navy" d="M930 247.4704 L936 235.4704 L924 235.4704 Z" clip-path="url(#clipPath2)" stroke="none"/>
      <rect x="862.5039" y="181.604" clip-path="url(#clipPath2)" fill="white" width="134.9923" height="25.792" stroke="none"/>
    </g>
    <g stroke-linecap="butt" font-size="16px" transform="matrix(1,0,0,1,-232,67)" fill="navy" text-rendering="geometricPrecision" font-family="sans-serif" shape-rendering="geometricPrecision" stroke="navy" stroke-miterlimit="1.45">
      <text x="864.5038" xml:space="preserve" y="200.708" clip-path="url(#clipPath2)" stroke="none">earmark:refersTo</text>
    </g>
    <g stroke-linecap="butt" transform="matrix(1,0,0,1,-232,67)" fill="green" text-rendering="geometricPrecision" shape-rendering="geometricPrecision" stroke="green" stroke-miterlimit="1.45">
      <path fill="none" d="M930 93.4911 L930 6.5079" clip-path="url(#clipPath2)"/>
    </g>
    <g stroke-linecap="butt" transform="matrix(1,0,0,1,-232,67)" fill-opacity="0" fill="rgb(0,0,0)" text-rendering="geometricPrecision" shape-rendering="geometricPrecision" stroke="rgb(0,0,0)" stroke-opacity="0" stroke-miterlimit="1.45">
      <path d="M930 101.4911 C927.7908 101.4911 926 99.7002 926 97.4911 C926 95.282 927.7908 93.4911 930 93.4911 C932.2092 93.4911 934 95.282 934 97.4911 C934 99.7002 932.2092 101.4911 930 101.4911 Z" stroke="none" clip-path="url(#clipPath2)"/>
    </g>
    <g stroke-linecap="butt" transform="matrix(1,0,0,1,-232,67)" fill="green" text-rendering="geometricPrecision" shape-rendering="geometricPrecision" stroke="green" stroke-miterlimit="1.45">
      <path fill="none" d="M930 101.4911 C927.7908 101.4911 926 99.7002 926 97.4911 C926 95.282 927.7908 93.4911 930 93.4911 C932.2092 93.4911 934 95.282 934 97.4911 C934 99.7002 932.2092 101.4911 930 101.4911 Z" clip-path="url(#clipPath2)"/>
      <path fill="white" d="M930 -8.4921 L924 7.5079 L936 7.5079 Z" clip-path="url(#clipPath2)" stroke="none"/>
      <path fill="none" d="M930 -8.4921 L924 7.5079 L936 7.5079 Z" clip-path="url(#clipPath2)"/>
      <rect x="829.5358" y="31.604" clip-path="url(#clipPath2)" fill="white" width="200.9284" height="25.792" stroke="none"/>
      <text x="831.5358" font-size="16px" y="50.708" clip-path="url(#clipPath2)" font-family="sans-serif" stroke="none" xml:space="preserve">earmark:hasXPathContext</text>
      <path fill="none" d="M356.478 120 L451.4911 120" clip-path="url(#clipPath2)" stroke="navy"/>
      <path fill="navy" d="M348.478 120 C348.478 117.7909 350.2689 116 352.478 116 C354.6872 116 356.478 117.7909 356.478 120 C356.478 122.2091 354.6872 124 352.478 124 C350.2689 124 348.478 122.2091 348.478 120 Z" clip-path="url(#clipPath2)" stroke="none"/>
      <path fill="navy" d="M462.4911 120 L450.4911 114 L450.4911 126 Z" clip-path="url(#clipPath2)" stroke="none"/>
    </g>
    <g stroke-linecap="butt" transform="matrix(-0,-1,1,-0,162.604,293.1842)" fill="white" text-rendering="geometricPrecision" shape-rendering="geometricPrecision" stroke="white" stroke-miterlimit="1.45">
      <rect x="0" width="212.3685" height="25.792" y="0" clip-path="url(#clipPath4)" stroke="none"/>
    </g>
    <g stroke-linecap="butt" font-size="16px" transform="matrix(-0,-1,1,-0,162.604,293.1842)" fill="navy" text-rendering="geometricPrecision" font-family="sans-serif" shape-rendering="geometricPrecision" stroke="navy" stroke-miterlimit="1.45">
      <text x="2" xml:space="preserve" y="19.104" clip-path="url(#clipPath4)" stroke="none">crm:P70i_is_documented_in</text>
    </g>
    <g stroke-linecap="butt" transform="matrix(1,0,0,1,-232,67)" fill="navy" text-rendering="geometricPrecision" shape-rendering="geometricPrecision" stroke="navy" stroke-miterlimit="1.45">
      <path fill="none" d="M600 146.0093 L600 236.9704" clip-path="url(#clipPath2)"/>
      <path d="M600 138.0093 C602.2092 138.0093 604 139.8001 604 142.0093 C604 144.2184 602.2092 146.0093 600 146.0093 C597.7908 146.0093 596 144.2184 596 142.0093 C596 139.8001 597.7908 138.0093 600 138.0093 Z" clip-path="url(#clipPath2)" stroke="none"/>
      <path d="M600 247.9704 L606 235.9704 L594 235.9704 Z" clip-path="url(#clipPath2)" stroke="none"/>
      <rect x="496.2718" y="182.104" clip-path="url(#clipPath2)" fill="white" width="207.4565" height="25.792" stroke="none"/>
      <text x="498.2718" font-size="16px" y="201.208" clip-path="url(#clipPath2)" font-family="sans-serif" stroke="none" xml:space="preserve">frbroo:R15i_is_fragment_of</text>
      <path fill="none" d="M741.4866 119.7856 L824.0123 119.6606" clip-path="url(#clipPath2)"/>
      <path d="M733.4866 119.7977 C733.4832 117.5886 735.2714 115.795 737.4805 115.7917 C739.6896 115.7883 741.4832 117.5765 741.4866 119.7856 C741.4899 121.9948 739.7018 123.7883 737.4926 123.7917 C735.2835 123.795 733.4899 122.0069 733.4866 119.7977 Z" clip-path="url(#clipPath2)" stroke="none"/>
      <path d="M835.0123 119.6439 L823.0032 113.6621 L823.0214 125.6621 Z" clip-path="url(#clipPath2)" stroke="none"/>
    </g>
    <g stroke-linecap="butt" transform="matrix(-0,-1,1,-0,541.354,278.102)" fill="white" text-rendering="geometricPrecision" shape-rendering="geometricPrecision" stroke="white" stroke-miterlimit="1.45">
      <rect x="0" width="182.7684" height="25.792" y="0" clip-path="url(#clipPath5)" stroke="none"/>
    </g>
    <g stroke-linecap="butt" font-size="16px" transform="matrix(-0,-1,1,-0,541.354,278.102)" fill="navy" text-rendering="geometricPrecision" font-family="sans-serif" shape-rendering="geometricPrecision" stroke="navy" stroke-miterlimit="1.45">
      <text x="2" xml:space="preserve" y="19.104" clip-path="url(#clipPath5)" stroke="none">crm:P128i_is_carried_by</text>
    </g>
  </g>
</svg>
