<?xml version="1.0" encoding="windows-1252" standalone="no"?>
<svg xmlns="http://www.w3.org/2000/svg" xmlns:xlink="http://www.w3.org/1999/xlink" contentStyleType="text/css" height="744px" preserveAspectRatio="none" style="width:1361px;height:744px;background:#FFFFFF;" version="1.1" viewBox="0 0 1361 744" width="1361px" zoomAndPan="magnify"><defs/><g><!--class dto:DistanceDimensionShape--><g id="elem_dto:DistanceDimensionShape"><rect codeLine="9" fill="#F1F1F1" height="66.8906" id="dto:DistanceDimensionShape" rx="2.5" ry="2.5" style="stroke:#181818;stroke-width:0.5;" width="409" x="479.5" y="7"/><text fill="#000000" font-family="sans-serif" font-size="14" lengthAdjust="spacing" textLength="214" x="577" y="24.9951">dto:DistanceDimensionShape</text><line style="stroke:#181818;stroke-width:0.5;" x1="480.5" x2="887.5" y1="33.2969" y2="33.2969"/><text fill="#000000" font-family="sans-serif" font-size="14" lengthAdjust="spacing" textLength="274" x="485.5" y="50.292">ecrm:P3_has_note  : rdfs:Literal  [0..1]</text><text fill="#000000" font-family="sans-serif" font-size="14" lengthAdjust="spacing" textLength="397" x="485.5" y="66.5889">ecrm:P90_has_value  : xsd:integer or xsd:decimal  [1..1]</text></g><!--class dto:MeasurementUnitRestriction--><g id="elem_dto:MeasurementUnitRestriction"><rect codeLine="13" fill="#F1F1F1" height="50.5938" id="dto:MeasurementUnitRestriction" rx="2.5" ry="2.5" style="stroke:#181818;stroke-width:0.5;" width="243" x="1111.5" y="15"/><text fill="#000000" font-family="sans-serif" font-size="14" lengthAdjust="spacing" textLength="237" x="1114.5" y="32.9951">dto:MeasurementUnitRestriction</text><line style="stroke:#181818;stroke-width:0.5;" x1="1112.5" x2="1353.5" y1="41.2969" y2="41.2969"/><text fill="#000000" font-family="sans-serif" font-size="14" lengthAdjust="spacing" textLength="188" x="1117.5" y="58.292">skos:inScheme  = dtv:unit</text></g><!--class dto:TravelTypeRestriction--><g id="elem_dto:TravelTypeRestriction"><rect codeLine="15" fill="#F1F1F1" height="50.5938" id="dto:TravelTypeRestriction" rx="2.5" ry="2.5" style="stroke:#181818;stroke-width:0.5;" width="214" x="577" y="109"/><text fill="#000000" font-family="sans-serif" font-size="14" lengthAdjust="spacing" textLength="190" x="589" y="126.9951">dto:TravelTypeRestriction</text><line style="stroke:#181818;stroke-width:0.5;" x1="578" x2="790" y1="135.2969" y2="135.2969"/><text fill="#000000" font-family="sans-serif" font-size="14" lengthAdjust="spacing" textLength="202" x="583" y="152.292">skos:inScheme  = dtv:travel</text></g><!--class dto:TravelShape--><g id="elem_dto:TravelShape"><rect codeLine="17" fill="#F1F1F1" height="26.2969" id="dto:TravelShape" rx="2.5" ry="2.5" style="stroke:#181818;stroke-width:0.5;" width="125" x="66.5" y="374.5"/><text fill="#000000" font-family="sans-serif" font-size="14" lengthAdjust="spacing" textLength="119" x="69.5" y="392.4951">dto:TravelShape</text></g><!--class ecrm:E53_Place--><g id="elem_ecrm:E53_Place"><rect fill="#F1F1F1" height="26.2969" id="ecrm:E53_Place" rx="2.5" ry="2.5" style="stroke:#181818;stroke-width:0.5;" width="120" x="624" y="195.5"/><text fill="#000000" font-family="sans-serif" font-size="14" lengthAdjust="spacing" textLength="114" x="627" y="213.4951">ecrm:E53_Place</text></g><!--class dto:TransportationRestriction--><g id="elem_dto:TransportationRestriction"><rect codeLine="29" fill="#F1F1F1" height="50.5938" id="dto:TransportationRestriction" rx="2.5" ry="2.5" style="stroke:#181818;stroke-width:0.5;" width="278" x="545" y="257"/><text fill="#000000" font-family="sans-serif" font-size="14" lengthAdjust="spacing" textLength="218" x="575" y="274.9951">dto:TransportationRestriction</text><line style="stroke:#181818;stroke-width:0.5;" x1="546" x2="822" y1="283.2969" y2="283.2969"/><text fill="#000000" font-family="sans-serif" font-size="14" lengthAdjust="spacing" textLength="266" x="551" y="300.292">skos:inScheme  = dtv:transportation</text></g><!--class ecrm:E19_Physical_Object--><g id="elem_ecrm:E19_Physical_Object"><rect fill="#F1F1F1" height="26.2969" id="ecrm:E19_Physical_Object" rx="2.5" ry="2.5" style="stroke:#181818;stroke-width:0.5;" width="195" x="586.5" y="343.5"/><text fill="#000000" font-family="sans-serif" font-size="14" lengthAdjust="spacing" textLength="189" x="589.5" y="361.4951">ecrm:E19_Physical_Object</text></g><!--class ecrm:E21_Person--><g id="elem_ecrm:E21_Person"><rect fill="#F1F1F1" height="26.2969" id="ecrm:E21_Person" rx="2.5" ry="2.5" style="stroke:#181818;stroke-width:0.5;" width="130" x="619" y="404.5"/><text fill="#000000" font-family="sans-serif" font-size="14" lengthAdjust="spacing" textLength="124" x="622" y="422.4951">ecrm:E21_Person</text></g><!--class ecrm:E39_Actor--><g id="elem_ecrm:E39_Actor"><rect fill="#F1F1F1" height="26.2969" id="ecrm:E39_Actor" rx="2.5" ry="2.5" style="stroke:#181818;stroke-width:0.5;" width="122" x="623" y="465.5"/><text fill="#000000" font-family="sans-serif" font-size="14" lengthAdjust="spacing" textLength="116" x="626" y="483.4951">ecrm:E39_Actor</text></g><!--class efrbroo:F23_Expression_Fragment--><g id="elem_efrbroo:F23_Expression_Fragment"><rect fill="#F1F1F1" height="26.2969" id="efrbroo:F23_Expression_Fragment" rx="2.5" ry="2.5" style="stroke:#181818;stroke-width:0.5;" width="253" x="557.5" y="526.5"/><text fill="#000000" font-family="sans-serif" font-size="14" lengthAdjust="spacing" textLength="247" x="560.5" y="544.4951">efrbroo:F23_Expression_Fragment</text></g><!--class ecrm:E52_Time-Span--><g id="elem_ecrm:E52_Time-Span"><rect fill="#F1F1F1" height="26.2969" id="ecrm:E52_Time-Span" rx="2.5" ry="2.5" style="stroke:#181818;stroke-width:0.5;" width="159" x="604.5" y="587.5"/><text fill="#000000" font-family="sans-serif" font-size="14" lengthAdjust="spacing" textLength="153" x="607.5" y="605.4951">ecrm:E52_Time-Span</text></g><!--class ecrm:E22_Human-Made_Object--><g id="elem_ecrm:E22_Human-Made_Object"><rect fill="#F1F1F1" height="26.2969" id="ecrm:E22_Human-Made_Object" rx="2.5" ry="2.5" style="stroke:#181818;stroke-width:0.5;" width="229" x="569.5" y="648.5002"/><text fill="#000000" font-family="sans-serif" font-size="14" lengthAdjust="spacing" textLength="223" x="572.5" y="666.4953">ecrm:E22_Human-Made_Object</text></g><!--link dto:DistanceDimensionShape to dto:MeasurementUnitRestriction--><g id="link_dto:DistanceDimensionShape_dto:MeasurementUnitRestriction"><path codeLine="12" d="M888.683,40.5 C963.557,40.5 1039.91,40.5 1105.19,40.5 " fill="none" id="dto:DistanceDimensionShape-to-dto:MeasurementUnitRestriction" style="stroke:#800000;stroke-width:1.0;"/><polygon fill="#800000" points="1111.19,40.5,1102.19,36.5,1106.19,40.5,1102.19,44.5,1111.19,40.5" style="stroke:#800000;stroke-width:1.0;"/><text fill="#000000" font-family="sans-serif" font-size="13" lengthAdjust="spacing" textLength="161" x="919.5" y="36.5669">ecrm:P91_has_unit [1..1]</text></g><!--link dto:TravelShape to ecrm:E53_Place--><g id="link_dto:TravelShape_ecrm:E53_Place"><path codeLine="18" d="M136.393,374.329 C148.954,350.022 179.346,298.418 221.5,274.5 C289.167,236.106 509.4829,218.519 617.9969,211.96 " fill="none" id="dto:TravelShape-to-ecrm:E53_Place" style="stroke:#800000;stroke-width:1.0;"/><polygon fill="#800000" points="623.986,211.598,614.7611,208.1483,618.9951,211.8997,615.2437,216.1337,623.986,211.598" style="stroke:#800000;stroke-width:1.0;"/><text fill="#000000" font-family="sans-serif" font-size="13" lengthAdjust="spacing" textLength="91" x="282" y="191.5669">dto:goal [1..1]</text><text fill="#000000" font-family="sans-serif" font-size="13" lengthAdjust="spacing" textLength="93" x="282" y="206.6997">dto:path [0..1]</text><text fill="#000000" font-family="sans-serif" font-size="13" lengthAdjust="spacing" textLength="107" x="282" y="221.8325">dto:source [1..1]</text></g><!--link dto:TravelShape to dto:TransportationRestriction--><g id="link_dto:TravelShape_dto:TransportationRestriction"><path codeLine="19" d="M152.92,374.314 C170.974,364.531 197.086,351.691 221.5,344.5 C327.547,313.266 446.0056,298.2065 538.9276,290.4905 " fill="none" id="dto:TravelShape-to-dto:TransportationRestriction" style="stroke:#800000;stroke-width:1.0;"/><polygon fill="#800000" points="544.907,289.994,535.6069,286.7525,539.9241,290.4078,536.2689,294.7251,544.907,289.994" style="stroke:#800000;stroke-width:1.0;"/><text fill="#000000" font-family="sans-serif" font-size="13" lengthAdjust="spacing" textLength="219" x="226" y="295.5669">dto:mode_of_transportation [0..1]</text></g><!--link dto:TravelShape to ecrm:E19_Physical_Object--><g id="link_dto:TravelShape_ecrm:E19_Physical_Object"><path codeLine="20" d="M191.56,384.049 C287.279,378.683 466.5954,368.6318 580.2964,362.2578 " fill="none" id="dto:TravelShape-to-ecrm:E19_Physical_Object" style="stroke:#800000;stroke-width:1.0;"/><polygon fill="#800000" points="586.287,361.922,577.0772,358.432,581.2948,362.2019,577.525,366.4195,586.287,361.922" style="stroke:#800000;stroke-width:1.0;"/><text fill="#000000" font-family="sans-serif" font-size="13" lengthAdjust="spacing" textLength="82" x="294.5" y="365.5669">dto:baggage</text></g><!--link dto:TravelShape to ecrm:E21_Person--><g id="link_dto:TravelShape_ecrm:E21_Person"><path codeLine="21" d="M162.878,400.599 C180.046,406.748 201.577,413.396 221.5,416.5 C361.823,438.361 523.09,430.8928 612.709,423.9438 " fill="none" id="dto:TravelShape-to-ecrm:E21_Person" style="stroke:#800000;stroke-width:1.0;"/><polygon fill="#800000" points="618.691,423.48,609.4087,420.1877,613.706,423.8665,610.0272,428.1638,618.691,423.48" style="stroke:#800000;stroke-width:1.0;"/><text fill="#000000" font-family="sans-serif" font-size="13" lengthAdjust="spacing" textLength="114" x="278.5" y="412.5669">dto:traveler [1..1]</text></g><!--link dto:TravelShape to ecrm:E39_Actor--><g id="link_dto:TravelShape_ecrm:E39_Actor"><path codeLine="22" d="M142.455,400.663 C158.815,416.948 189.271,443.938 221.5,455.5 C358.36,504.6 526.7942,496.3239 616.9742,486.9419 " fill="none" id="dto:TravelShape-to-ecrm:E39_Actor" style="stroke:#800000;stroke-width:1.0;"/><polygon fill="#800000" points="622.942,486.321,613.5764,483.2738,617.9688,486.8384,614.4042,491.2308,622.942,486.321" style="stroke:#800000;stroke-width:1.0;"/><text fill="#000000" font-family="sans-serif" font-size="13" lengthAdjust="spacing" textLength="114" x="278.5" y="451.5669">dto:co-participant</text></g><!--link dto:TravelShape to dto:DistanceDimensionShape--><g id="link_dto:TravelShape_dto:DistanceDimensionShape"><path codeLine="23" d="M129.813,374.338 C129.948,329.063 136.981,178.626 221.5,107.5 C292.041,48.138 385.1463,28.581 473.4413,24.884 " fill="none" id="dto:TravelShape-to-dto:DistanceDimensionShape" style="stroke:#800000;stroke-width:1.0;"/><polygon fill="#800000" points="479.436,24.633,470.2765,21.013,474.4404,24.8422,470.6112,29.006,479.436,24.633" style="stroke:#800000;stroke-width:1.0;"/><text fill="#000000" font-family="sans-serif" font-size="13" lengthAdjust="spacing" textLength="118" x="276.5" y="23.5669">dto:distance [0..1]</text></g><!--link dto:TravelShape to dto:TravelTypeRestriction--><g id="link_dto:TravelShape_dto:TravelTypeRestriction"><path codeLine="24" d="M131.11,374.342 C135.125,335.893 152.55,223.302 221.5,173.5 C276.335,133.894 452.4356,129.4187 570.8316,131.0617 " fill="none" id="dto:TravelShape-to-dto:TravelTypeRestriction" style="stroke:#800000;stroke-width:1.0;"/><polygon fill="#800000" points="576.831,131.145,567.8874,127.0205,571.8315,131.0756,567.7764,135.0197,576.831,131.145" style="stroke:#800000;stroke-width:1.0;"/><text fill="#000000" font-family="sans-serif" font-size="13" lengthAdjust="spacing" textLength="158" x="256.5" y="128.5669">ecrm:P2_has_type [0..1]</text></g><!--link dto:TravelShape to efrbroo:F23_Expression_Fragment--><g id="link_dto:TravelShape_efrbroo:F23_Expression_Fragment"><path codeLine="25" d="M134.748,400.859 C145.353,428.445 173.852,491.311 221.5,517.5 C349.787,588.011 523.7992,570.2292 616.5372,553.5972 " fill="none" id="dto:TravelShape-to-efrbroo:F23_Expression_Fragment" style="stroke:#800000;stroke-width:1.0;"/><polygon fill="#800000" points="622.443,552.538,612.8782,550.1896,617.5215,553.4206,614.2904,558.0639,622.443,552.538" style="stroke:#800000;stroke-width:1.0;"/><text fill="#000000" font-family="sans-serif" font-size="13" lengthAdjust="spacing" textLength="226" x="222.5" y="513.5669">ecrm:P70i_is_documented_in [1..1]</text></g><!--link dto:TravelShape to ecrm:E52_Time-Span--><g id="link_dto:TravelShape_ecrm:E52_Time-Span"><path codeLine="26" d="M131.188,400.606 C135.392,438.331 153.226,547.362 221.5,592.5 C282.246,632.6611 483.3804,620.391 598.4094,609.5689 " fill="none" id="dto:TravelShape-to-ecrm:E52_Time-Span" style="stroke:#800000;stroke-width:1.0;"/><polygon fill="#800000" points="604.383,609.0069,595.0479,605.8675,599.405,609.4752,595.7972,613.8323,604.383,609.0069" style="stroke:#800000;stroke-width:1.0;"/><text fill="#000000" font-family="sans-serif" font-size="13" lengthAdjust="spacing" textLength="194" x="238.5" y="588.5669">ecrm:P4_has_time-span [0..1]</text></g><!--link dto:TravelShape to ecrm:E22_Human-Made_Object--><g id="link_dto:TravelShape_ecrm:E22_Human-Made_Object"><path codeLine="27" d="M129.971,400.531 C130.66,443.939 139.388,584.28 221.5,644.5002 C348.057,737.3164 545.1065,699.6744 633.5775,676.0875 " fill="none" id="dto:TravelShape-to-ecrm:E22_Human-Made_Object" style="stroke:#800000;stroke-width:1.0;"/><polygon fill="#800000" points="639.375,674.5419,629.6483,672.9954,634.5438,675.8299,631.7092,680.7254,639.375,674.5419" style="stroke:#800000;stroke-width:1.0;"/><text fill="#000000" font-family="sans-serif" font-size="13" lengthAdjust="spacing" textLength="109" x="281" y="640.5671">dto:vehicle [0..1]</text></g><!--link dto:TravelShape to dto:TravelShape--><g id="link_dto:TravelShape_dto:TravelShape"><path codeLine="28" d="M101.599,374.476 C80.2355,358.45 89.3691,339.5 129,339.5 C168.631,339.5 182.5647,354.8496 161.2007,370.8756 " fill="none" id="dto:TravelShape-to-dto:TravelShape" style="stroke:#800000;stroke-width:1.0;"/><polygon fill="#800000" points="156.401,374.476,166.0008,372.2751,160.4007,371.4756,161.2002,365.8756,156.401,374.476" style="stroke:#800000;stroke-width:1.0;"/><text fill="#000000" font-family="sans-serif" font-size="13" lengthAdjust="spacing" textLength="178" x="12" y="300.5669">ecrm:P134_continued [0..1]</text><text fill="#000000" font-family="sans-serif" font-size="13" lengthAdjust="spacing" textLength="234" x="12" y="315.6997">ecrm:P183i_starts_after_the_end_of</text><text fill="#000000" font-family="sans-serif" font-size="13" lengthAdjust="spacing" textLength="193" x="12" y="330.8325">ecrm:P9i_forms_part_of [0..1]</text></g><!--SRC=[dLNRRjim37tFLsZTuv32TbfiCRO2GQy3bZLeKknX6mH5ecsjjcH8TDhiwqVRlJXfawPxitNeG_A8XyuXGOQMEPrco9Hs855Rq_E0p8W2V2aaJA4KJg1rp5W3FN-ZJNrGC9aBxy-imQd-2omywBrJa6W3xDlNyulPvTNe-_bfDzmM9H5GE2vpO5MHHntqrebo3DwB57veXHaBWw03ZvopjySsfohUZuMpsujalUEwDhQdqCOdsgCm4avq0SPJUzDCbB37UblHc85qHJmPy4nuRYm2epEd4Xz_qmXEv8pz3FRtmzziHwPXq50jH5urN7TUnTeWfE0OrLs_Af2wQ9Z3NPZx_QEsnJ48NpaW5A-DnYlmw7HpbPtqOPE-8lppzOSW60L7ZrawQcsZwksGpDzOJsrDPKOHZ7rX2XTndNGrpSo91UIpPGalPDW0RY379leb-fMBNZbgb6jqEJqSy4bE4rJprt6f5VcwGB_o6Ya5Pez8q4MyhPo4Px9ko7j_Qdnf7OgwjxKswu32Ak0suRWIk9v-UslXa4-ofTTIvFno_eVC_S0-5sbAJdlb-oZa4t3-gQXMQd2xTjhI38Py9CcQ3opIzicigAKkXS6jCctsL8sgUtHNLRRELkkIg3494hopr8cRqpwApw81Fxqh7UqmOkHdJgIrHPweFmQQQy-LbLKDWEBQl4t8muZFI8Z-b7HxuZreIwu1MeLl794euXTL8Kn_B6ZULeTa0PcM-N-ekxRumi41b_IRqAO2zTn0zq6V1fhJTJhqN2IqO3bcmC4eCi5Zq53pnBh2ytf-27XMskeAsEImtkiMtBHfEbzGkamhO58xKgbzBW0pgtpx0aM9IpegvcIYVm00]--></g></svg>