<?xml version="1.0" encoding="windows-1252" standalone="no"?>
<svg xmlns="http://www.w3.org/2000/svg" xmlns:xlink="http://www.w3.org/1999/xlink" contentStyleType="text/css" height="431px" preserveAspectRatio="none" style="width:775px;height:431px;background:#FFFFFF;" version="1.1" viewBox="0 0 775 431" width="775px" zoomAndPan="magnify"><defs/><g><!--class dto:PerceptionTypeRestriction--><g id="elem_dto:PerceptionTypeRestriction"><rect codeLine="9" fill="#FAB565" height="50.5938" id="dto:PerceptionTypeRestriction" rx="2.5" ry="2.5" style="stroke:#181818;stroke-width:0.5;" width="253" x="515" y="8.0659"/><text fill="#000000" font-family="sans-serif" font-size="14" lengthAdjust="spacing" textLength="226" x="528.5" y="26.061">dto:PerceptionTypeRestriction</text><line style="stroke:#181818;stroke-width:0.5;" x1="516" x2="767" y1="34.3628" y2="34.3628"/><text fill="#000000" font-family="sans-serif" font-size="14" lengthAdjust="spacing" textLength="241" x="521" y="51.3579">skos:inScheme  = dtv:perception</text></g><!--class dto:Perception_activeShape--><g id="elem_dto:Perception_activeShape"><rect codeLine="11" fill="#82C3EC" height="26.2969" id="dto:Perception_activeShape" rx="2.5" ry="2.5" style="stroke:#181818;stroke-width:0.5;" width="212" x="7" y="216.5659"/><text fill="#000000" font-family="sans-serif" font-size="14" lengthAdjust="spacing" textLength="206" x="10" y="234.561">dto:Perception_activeShape</text></g><!--class ecrm:E7_Activity--><g id="elem_ecrm:E7_Activity"><rect fill="#F1F1F1" height="26.2969" id="ecrm:E7_Activity" rx="2.5" ry="2.5" style="stroke:#181818;stroke-width:0.5;" width="129" x="577" y="94.5659"/><text fill="#000000" font-family="sans-serif" font-size="14" lengthAdjust="spacing" textLength="123" x="580" y="112.561">ecrm:E7_Activity</text></g><!--class efrbroo:F23_Expression_Fragment--><g id="elem_efrbroo:F23_Expression_Fragment"><rect fill="#F1F1F1" height="26.2969" id="efrbroo:F23_Expression_Fragment" rx="2.5" ry="2.5" style="stroke:#181818;stroke-width:0.5;" width="253" x="515" y="155.5659"/><text fill="#000000" font-family="sans-serif" font-size="14" lengthAdjust="spacing" textLength="247" x="518" y="173.561">efrbroo:F23_Expression_Fragment</text></g><!--class ecrm:E53_Place--><g id="elem_ecrm:E53_Place"><rect fill="#F1F1F1" height="26.2969" id="ecrm:E53_Place" rx="2.5" ry="2.5" style="stroke:#181818;stroke-width:0.5;" width="120" x="581.5" y="216.5659"/><text fill="#000000" font-family="sans-serif" font-size="14" lengthAdjust="spacing" textLength="114" x="584.5" y="234.561">ecrm:E53_Place</text></g><!--class ecrm:E21_Person--><g id="elem_ecrm:E21_Person"><rect fill="#F1F1F1" height="26.2969" id="ecrm:E21_Person" rx="2.5" ry="2.5" style="stroke:#181818;stroke-width:0.5;" width="130" x="576.5" y="277.5659"/><text fill="#000000" font-family="sans-serif" font-size="14" lengthAdjust="spacing" textLength="124" x="579.5" y="295.561">ecrm:E21_Person</text></g><!--class ecrm:E52_Time-Span--><g id="elem_ecrm:E52_Time-Span"><rect fill="#F1F1F1" height="26.2969" id="ecrm:E52_Time-Span" rx="2.5" ry="2.5" style="stroke:#181818;stroke-width:0.5;" width="159" x="562" y="338.5659"/><text fill="#000000" font-family="sans-serif" font-size="14" lengthAdjust="spacing" textLength="153" x="565" y="356.561">ecrm:E52_Time-Span</text></g><!--class ecrm:E1_CRM_Entity--><g id="elem_ecrm:E1_CRM_Entity"><rect fill="#F1F1F1" height="26.2969" id="ecrm:E1_CRM_Entity" rx="2.5" ry="2.5" style="stroke:#181818;stroke-width:0.5;" width="156" x="563.5" y="399.5659"/><text fill="#000000" font-family="sans-serif" font-size="14" lengthAdjust="spacing" textLength="150" x="566.5" y="417.561">ecrm:E1_CRM_Entity</text></g><!--link dto:Perception_activeShape to dto:PerceptionTypeRestriction--><g id="link_dto:Perception_activeShape_dto:PerceptionTypeRestriction"><path codeLine="12" d="M120.918,216.1269 C137.868,184.7789 184.814,106.9519 249,73.5659 C330.525,31.1619 428.4536,22.1906 508.7396,23.3056 " fill="none" id="dto:Perception_activeShape-to-dto:PerceptionTypeRestriction" style="stroke:#800000;stroke-width:1.0;"/><polygon fill="#800000" points="514.739,23.3889,505.7954,19.2643,509.7395,23.3195,505.6843,27.2636,514.739,23.3889" style="stroke:#800000;stroke-width:1.0;"/><text fill="#000000" font-family="sans-serif" font-size="13" lengthAdjust="spacing" textLength="158" x="288" y="19.6328">ecrm:P2_has_type [0..1]</text></g><!--link dto:Perception_activeShape to ecrm:E7_Activity--><g id="link_dto:Perception_activeShape_ecrm:E7_Activity"><path codeLine="13" d="M132.657,216.5399 C157.815,199.6829 204.596,170.7949 249,156.5659 C360.709,120.7689 492.1582,111.1349 570.9192,108.5479 " fill="none" id="dto:Perception_activeShape-to-ecrm:E7_Activity" style="stroke:#800000;stroke-width:1.0;"/><polygon fill="#800000" points="576.916,108.3509,567.7895,104.6485,571.9187,108.5151,568.0522,112.6442,576.916,108.3509" style="stroke:#800000;stroke-width:1.0;"/><text fill="#000000" font-family="sans-serif" font-size="13" lengthAdjust="spacing" textLength="234" x="250" y="94.6328">ecrm:P183i_starts_after_the_end_of</text><text fill="#000000" font-family="sans-serif" font-size="13" lengthAdjust="spacing" textLength="193" x="250" y="109.7656">ecrm:P9i_forms_part_of [0..1]</text></g><!--link dto:Perception_activeShape to efrbroo:F23_Expression_Fragment--><g id="link_dto:Perception_activeShape_efrbroo:F23_Expression_Fragment"><path codeLine="14" d="M188.855,216.5159 C208.396,213.3429 229.458,210.1289 249,207.5659 C337.551,195.9519 431.7982,186.5667 508.6712,179.6357 " fill="none" id="dto:Perception_activeShape-to-efrbroo:F23_Expression_Fragment" style="stroke:#800000;stroke-width:1.0;"/><polygon fill="#800000" points="514.647,179.0969,505.3242,175.9213,509.6672,179.5459,506.0425,183.8889,514.647,179.0969" style="stroke:#800000;stroke-width:1.0;"/><text fill="#000000" font-family="sans-serif" font-size="13" lengthAdjust="spacing" textLength="226" x="254" y="177.6328">ecrm:P70i_is_documented_in [1..1]</text></g><!--link dto:Perception_activeShape to ecrm:E53_Place--><g id="link_dto:Perception_activeShape_ecrm:E53_Place"><path codeLine="15" d="M219.28,229.5659 C327.912,229.5659 487.497,229.5659 575.195,229.5659 " fill="none" id="dto:Perception_activeShape-to-ecrm:E53_Place" style="stroke:#800000;stroke-width:1.0;"/><polygon fill="#800000" points="581.195,229.5659,572.195,225.5659,576.195,229.5659,572.195,233.5659,581.195,229.5659" style="stroke:#800000;stroke-width:1.0;"/><text fill="#000000" font-family="sans-serif" font-size="13" lengthAdjust="spacing" textLength="188" x="273" y="225.6328">ecrm:P7_took_place_at [0..1]</text></g><!--link dto:Perception_activeShape to ecrm:E21_Person--><g id="link_dto:Perception_activeShape_ecrm:E21_Person"><path codeLine="16" d="M177.672,242.5939 C200.139,246.8629 225.625,251.3339 249,254.5659 C363.772,270.4359 492.4863,280.6739 570.2233,286.0509 " fill="none" id="dto:Perception_activeShape-to-ecrm:E21_Person" style="stroke:#800000;stroke-width:1.0;"/><polygon fill="#800000" points="576.209,286.4649,567.5065,281.8534,571.2209,286.1199,566.9544,289.8343,576.209,286.4649" style="stroke:#800000;stroke-width:1.0;"/><text fill="#000000" font-family="sans-serif" font-size="13" lengthAdjust="spacing" textLength="187" x="273.5" y="250.6328">dto:perceiver_agentive [1..1]</text></g><!--link dto:Perception_activeShape to ecrm:E52_Time-Span--><g id="link_dto:Perception_activeShape_ecrm:E52_Time-Span"><path codeLine="17" d="M132.622,242.7949 C157.742,259.9079 204.481,289.2209 249,303.5659 C353.773,337.3252 475.3371,347.3913 555.7551,350.374 " fill="none" id="dto:Perception_activeShape-to-ecrm:E52_Time-Span" style="stroke:#800000;stroke-width:1.0;"/><polygon fill="#800000" points="561.751,350.5964,552.9054,346.2656,556.7544,350.4111,552.6089,354.2601,561.751,350.5964" style="stroke:#800000;stroke-width:1.0;"/><text fill="#000000" font-family="sans-serif" font-size="13" lengthAdjust="spacing" textLength="194" x="270" y="299.6328">ecrm:P4_has_time-span [0..1]</text></g><!--link dto:Perception_activeShape to ecrm:E1_CRM_Entity--><g id="link_dto:Perception_activeShape_ecrm:E1_CRM_Entity"><path codeLine="18" d="M122.128,242.8919 C140.567,271.7799 188.688,339.9477 249,369.5659 C349.35,418.8458 475.2179,422.9833 557.4079,419.3477 " fill="none" id="dto:Perception_activeShape-to-ecrm:E1_CRM_Entity" style="stroke:#800000;stroke-width:1.0;"/><polygon fill="#800000" points="563.402,419.0826,554.234,415.4842,558.4069,419.3035,554.5876,423.4764,563.402,419.0826" style="stroke:#800000;stroke-width:1.0;"/><text fill="#000000" font-family="sans-serif" font-size="13" lengthAdjust="spacing" textLength="149" x="292.5" y="365.6328">dto:phenomenon [1..1]</text></g><!--SRC=[dLFRRjD047tFLmpj8qfbEmrj3LIAegGW4OZY81u0ZJRhSRoAzwBTwILyFUjOROCgYCYRTywPcJCpnmrL36p1gtNDK2fFafKrlK0CHcWAJaWgo0als7emrb0lR9Hf0nfa8qAOMiE5-aMGdlTUbLGfG_3fuys7vPV5wFFDP9zkjOi58fst3S6jRh8zzDuBDwCGn9g-gP9hI9Da3nvvR-_7jeagJcV2st-BXDwurGOd9TjyJbwIQ-TQRXqjAB1Nkp5Fu7Gbv2Qln6huPlYsTuYTGzZOa2jJo9eq0Ro7akzozvG1V-cB8bQuew8MZXwRNcPoGF95qp-f_Vur75P5qkjydc4j0dA4ttrzdIIZvFfxSdQM_eoY3lVObPXSuAX556-VowQN0uM1XUU0ecBoo3KXcH9j1J-QZdIbiB9U1un7u0WSew3ogtZMV9eDSFBWVBH2IvnwiTRHCy-2BXA5Ac1fvMqBK8dAFFLB_tFYuG3dJRJFNdbaQpVesYWAFdgNMOgH5ReBjJaxcqIgnsXnqoOThph3fTBKBvpOCy1vPu0MYB-4ELfvYkF532THOkU3dVYQZ8thjYzNNQkIG2el6-g-DN5joz0zI3lUnf1UnMNy1W00]--></g></svg>