<?xml version="1.0" encoding="windows-1252" standalone="no"?>
<svg xmlns="http://www.w3.org/2000/svg" xmlns:xlink="http://www.w3.org/1999/xlink" contentStyleType="text/css" height="549px" preserveAspectRatio="none" style="width:1264px;height:549px;background:#FFFFFF;" version="1.1" viewBox="0 0 1264 549" width="1264px" zoomAndPan="magnify"><defs/><g><!--class dto:Commerce_buyShape--><g id="elem_dto:Commerce_buyShape"><rect codeLine="9" fill="#82C3EC" height="26.2969" id="dto:Commerce_buyShape" rx="2.5" ry="2.5" style="stroke:#181818;stroke-width:0.5;" width="193" x="7" y="279.5659"/><text fill="#000000" font-family="sans-serif" font-size="14" lengthAdjust="spacing" textLength="187" x="10" y="297.561">dto:Commerce_buyShape</text></g><!--class ecrm:E21_Person--><g id="elem_ecrm:E21_Person"><rect fill="#F1F1F1" height="26.2969" id="ecrm:E21_Person" rx="2.5" ry="2.5" style="stroke:#181818;stroke-width:0.5;" width="130" x="583" y="18.5659"/><text fill="#000000" font-family="sans-serif" font-size="14" lengthAdjust="spacing" textLength="124" x="586" y="36.561">ecrm:E21_Person</text></g><!--class dto:MoneyDimensionShape--><g id="elem_dto:MoneyDimensionShape"><rect codeLine="18" fill="#E6E4EC" height="66.8906" id="dto:MoneyDimensionShape" rx="2.5" ry="2.5" style="stroke:#181818;stroke-width:0.5;" width="304" x="496" y="80.0659"/><text fill="#000000" font-family="sans-serif" font-size="14" lengthAdjust="spacing" textLength="198" x="549" y="98.061">dto:MoneyDimensionShape</text><line style="stroke:#181818;stroke-width:0.5;" x1="497" x2="799" y1="106.3628" y2="106.3628"/><text fill="#000000" font-family="sans-serif" font-size="14" lengthAdjust="spacing" textLength="274" x="502" y="123.3579">ecrm:P3_has_note  : rdfs:Literal  [0..1]</text><text fill="#000000" font-family="sans-serif" font-size="14" lengthAdjust="spacing" textLength="292" x="502" y="139.6548">ecrm:P90_has_value  : xsd:decimal  [1..1]</text></g><!--class ecrm:E53_Place--><g id="elem_ecrm:E53_Place"><rect fill="#F1F1F1" height="26.2969" id="ecrm:E53_Place" rx="2.5" ry="2.5" style="stroke:#181818;stroke-width:0.5;" width="120" x="588" y="182.5659"/><text fill="#000000" font-family="sans-serif" font-size="14" lengthAdjust="spacing" textLength="114" x="591" y="200.561">ecrm:E53_Place</text></g><!--class ecrm:E7_Activity--><g id="elem_ecrm:E7_Activity"><rect fill="#F1F1F1" height="26.2969" id="ecrm:E7_Activity" rx="2.5" ry="2.5" style="stroke:#181818;stroke-width:0.5;" width="129" x="583.5" y="246.5659"/><text fill="#000000" font-family="sans-serif" font-size="14" lengthAdjust="spacing" textLength="123" x="586.5" y="264.561">ecrm:E7_Activity</text></g><!--class ecrm:E52_Time-Span--><g id="elem_ecrm:E52_Time-Span"><rect fill="#F1F1F1" height="26.2969" id="ecrm:E52_Time-Span" rx="2.5" ry="2.5" style="stroke:#181818;stroke-width:0.5;" width="159" x="568.5" y="307.5659"/><text fill="#000000" font-family="sans-serif" font-size="14" lengthAdjust="spacing" textLength="153" x="571.5" y="325.561">ecrm:E52_Time-Span</text></g><!--class ecrm:E39_Actor--><g id="elem_ecrm:E39_Actor"><rect fill="#F1F1F1" height="26.2969" id="ecrm:E39_Actor" rx="2.5" ry="2.5" style="stroke:#181818;stroke-width:0.5;" width="122" x="587" y="368.5659"/><text fill="#000000" font-family="sans-serif" font-size="14" lengthAdjust="spacing" textLength="116" x="590" y="386.561">ecrm:E39_Actor</text></g><!--class efrbroo:F23_Expression_Fragment--><g id="elem_efrbroo:F23_Expression_Fragment"><rect fill="#F1F1F1" height="26.2969" id="efrbroo:F23_Expression_Fragment" rx="2.5" ry="2.5" style="stroke:#181818;stroke-width:0.5;" width="253" x="521.5" y="429.5655"/><text fill="#000000" font-family="sans-serif" font-size="14" lengthAdjust="spacing" textLength="247" x="524.5" y="447.5606">efrbroo:F23_Expression_Fragment</text></g><!--class ecrm:E19_Physical_Object--><g id="elem_ecrm:E19_Physical_Object"><rect fill="#F1F1F1" height="26.2969" id="ecrm:E19_Physical_Object" rx="2.5" ry="2.5" style="stroke:#181818;stroke-width:0.5;" width="195" x="550.5" y="490.5655"/><text fill="#000000" font-family="sans-serif" font-size="14" lengthAdjust="spacing" textLength="189" x="553.5" y="508.5606">ecrm:E19_Physical_Object</text></g><!--class dto:CurrencyRestriction--><g id="elem_dto:CurrencyRestriction"><rect codeLine="22" fill="#FAB565" height="50.5938" id="dto:CurrencyRestriction" rx="2.5" ry="2.5" style="stroke:#181818;stroke-width:0.5;" width="234" x="1023" y="88.0659"/><text fill="#000000" font-family="sans-serif" font-size="14" lengthAdjust="spacing" textLength="174" x="1053" y="106.061">dto:CurrencyRestriction</text><line style="stroke:#181818;stroke-width:0.5;" x1="1024" x2="1256" y1="114.3628" y2="114.3628"/><text fill="#000000" font-family="sans-serif" font-size="14" lengthAdjust="spacing" textLength="222" x="1029" y="131.3579">skos:inScheme  = dtv:currency</text></g><!--link dto:Commerce_buyShape to ecrm:E21_Person--><g id="link_dto:Commerce_buyShape_ecrm:E21_Person"><path codeLine="10" d="M108.194,279.5269 C119.437,242.4659 157.016,136.1289 230,88.5659 C338.201,18.0519 489.7899,17.2856 576.9789,23.8476 " fill="none" id="dto:Commerce_buyShape-to-ecrm:E21_Person" style="stroke:#800000;stroke-width:1.0;"/><polygon fill="#800000" points="582.962,24.2979,574.2876,19.6338,577.9761,23.9227,573.6872,27.6112,582.962,24.2979" style="stroke:#800000;stroke-width:1.0;"/><text fill="#000000" font-family="sans-serif" font-size="13" lengthAdjust="spacing" textLength="101" x="297.5" y="19.6328">dto:buyer [1..1]</text></g><!--link dto:Commerce_buyShape to dto:MoneyDimensionShape--><g id="link_dto:Commerce_buyShape_dto:MoneyDimensionShape"><path codeLine="11" d="M113.409,279.5079 C131.8,253.7249 176.737,196.5279 230,170.5659 C312.102,130.5459 407.4555,116.3377 489.6765,111.9487 " fill="none" id="dto:Commerce_buyShape-to-dto:MoneyDimensionShape" style="stroke:#800000;stroke-width:1.0;"/><polygon fill="#800000" points="495.668,111.6289,486.4676,108.1143,490.6751,111.8954,486.894,116.103,495.668,111.6289" style="stroke:#800000;stroke-width:1.0;"/><text fill="#000000" font-family="sans-serif" font-size="13" lengthAdjust="spacing" textLength="109" x="293.5" y="109.6328">dto:money [1..1]</text></g><!--link dto:Commerce_buyShape to ecrm:E53_Place--><g id="link_dto:Commerce_buyShape_ecrm:E53_Place"><path codeLine="12" d="M124.85,279.5019 C148.909,264.7889 190.666,241.5069 230,230.5659 C353.888,196.1059 499.8065,192.4856 581.7705,193.5826 " fill="none" id="dto:Commerce_buyShape-to-ecrm:E53_Place" style="stroke:#800000;stroke-width:1.0;"/><polygon fill="#800000" points="587.77,193.6629,578.8243,189.5428,582.7704,193.596,578.7173,197.5421,587.77,193.6629" style="stroke:#800000;stroke-width:1.0;"/><text fill="#000000" font-family="sans-serif" font-size="13" lengthAdjust="spacing" textLength="188" x="254" y="191.6328">ecrm:P7_took_place_at [0..1]</text></g><!--link dto:Commerce_buyShape to ecrm:E7_Activity--><g id="link_dto:Commerce_buyShape_ecrm:E7_Activity"><path codeLine="13" d="M200.239,286.7419 C310.505,280.0339 482.5941,269.5662 577.1871,263.8122 " fill="none" id="dto:Commerce_buyShape-to-ecrm:E7_Activity" style="stroke:#800000;stroke-width:1.0;"/><polygon fill="#800000" points="583.176,263.4479,573.9497,260.0017,578.1852,263.7515,574.4355,267.987,583.176,263.4479" style="stroke:#800000;stroke-width:1.0;"/><text fill="#000000" font-family="sans-serif" font-size="13" lengthAdjust="spacing" textLength="234" x="231" y="251.6328">ecrm:P183i_starts_after_the_end_of</text><text fill="#000000" font-family="sans-serif" font-size="13" lengthAdjust="spacing" textLength="193" x="231" y="266.7656">ecrm:P9i_forms_part_of [0..1]</text></g><!--link dto:Commerce_buyShape to ecrm:E52_Time-Span--><g id="link_dto:Commerce_buyShape_ecrm:E52_Time-Span"><path codeLine="14" d="M146.432,305.6249 C170.598,312.4669 201.706,320.1229 230,323.5659 C347.144,337.8189 478.1822,333.1044 562.2792,327.5074 " fill="none" id="dto:Commerce_buyShape-to-ecrm:E52_Time-Span" style="stroke:#800000;stroke-width:1.0;"/><polygon fill="#800000" points="568.266,327.1089,559.0202,323.7154,563.277,327.441,559.5515,331.6978,568.266,327.1089" style="stroke:#800000;stroke-width:1.0;"/><text fill="#000000" font-family="sans-serif" font-size="13" lengthAdjust="spacing" textLength="194" x="251" y="319.6328">ecrm:P4_has_time-span [0..1]</text></g><!--link dto:Commerce_buyShape to ecrm:E39_Actor--><g id="link_dto:Commerce_buyShape_ecrm:E39_Actor"><path codeLine="15" d="M123.436,305.6339 C147.133,321.1939 189.536,346.4669 230,357.5659 C353.257,391.3709 498.4606,390.305 580.7006,386.173 " fill="none" id="dto:Commerce_buyShape-to-ecrm:E39_Actor" style="stroke:#800000;stroke-width:1.0;"/><polygon fill="#800000" points="586.693,385.8719,577.5036,382.3286,581.6993,386.1228,577.9051,390.3185,586.693,385.8719" style="stroke:#800000;stroke-width:1.0;"/><text fill="#000000" font-family="sans-serif" font-size="13" lengthAdjust="spacing" textLength="98" x="299" y="353.6328">dto:seller [0..1]</text></g><!--link dto:Commerce_buyShape to efrbroo:F23_Expression_Fragment--><g id="link_dto:Commerce_buyShape_efrbroo:F23_Expression_Fragment"><path codeLine="16" d="M113.361,305.5809 C131.666,331.2309 176.455,387.8779 230,411.5659 C321.617,452.0964 429.6393,458.1641 515.2843,454.9381 " fill="none" id="dto:Commerce_buyShape-to-efrbroo:F23_Expression_Fragment" style="stroke:#800000;stroke-width:1.0;"/><polygon fill="#800000" points="521.28,454.7122,512.1358,451.0538,516.2835,454.9004,512.4369,459.0481,521.28,454.7122" style="stroke:#800000;stroke-width:1.0;"/><text fill="#000000" font-family="sans-serif" font-size="13" lengthAdjust="spacing" textLength="226" x="235" y="407.6328">ecrm:P70i_is_documented_in [1..1]</text></g><!--link dto:Commerce_buyShape to ecrm:E19_Physical_Object--><g id="link_dto:Commerce_buyShape_ecrm:E19_Physical_Object"><path codeLine="17" d="M108.632,305.5709 C120.663,340.9999 159.368,439.2551 230,479.5655 C340.689,542.7364 490.011,531.4341 576.466,517.5436 " fill="none" id="dto:Commerce_buyShape-to-ecrm:E19_Physical_Object" style="stroke:#800000;stroke-width:1.0;"/><polygon fill="#800000" points="582.39,516.5918,572.8694,514.0702,577.4533,517.385,574.1385,521.9689,582.39,516.5918" style="stroke:#800000;stroke-width:1.0;"/><text fill="#000000" font-family="sans-serif" font-size="13" lengthAdjust="spacing" textLength="103" x="296.5" y="475.6324">dto:goods [1..1]</text></g><!--link dto:MoneyDimensionShape to dto:CurrencyRestriction--><g id="link_dto:MoneyDimensionShape_dto:CurrencyRestriction"><path codeLine="21" d="M800.014,113.5659 C871.72,113.5659 950.086,113.5659 1016.71,113.5659 " fill="none" id="dto:MoneyDimensionShape-to-dto:CurrencyRestriction" style="stroke:#800000;stroke-width:1.0;"/><polygon fill="#800000" points="1022.71,113.5659,1013.71,109.5659,1017.71,113.5659,1013.71,117.5659,1022.71,113.5659" style="stroke:#800000;stroke-width:1.0;"/><text fill="#000000" font-family="sans-serif" font-size="13" lengthAdjust="spacing" textLength="161" x="831" y="109.6328">ecrm:P91_has_unit [1..1]</text></g><!--SRC=[dPJRJjj048RlynJRS5a5sGa1uhP8KKfe9GuHeUf5Mwqswt6ypHwitGdWFdt7DW5N3IdbpfuPVJCx_x-h8KE6Zdcrp96boeD4vMmd038h38H2I9X38Rn0vvbr5ZfXfMmLC4ng4SBKMPohNy3YWywR539bWPr_FljqStKzlZmxRPSxKn20oh7KmDP6zrlPEo-A2mX1BE6hIZ5dSHIrqcFltTt4QPfYxq9ujtj8rfbKix5kYYwPE6F0I-2BTJdFHG5TjhSGSfKSz-K0vBlESrMztWdhWlGcEUt7V0O-EDjb2QlAgGhy-ozlesWSdNoBz_VZ7upj9bMv2ngk_AWCs41xViWsH5Eb_e_Op3OSy9cc5LIWEZ8xukZSYXTLb0jyX4OlXnxnCLdXLc7vX8sF1ue751u35nc2vvW31vjobx7lkYaQAPuvRm8dFP0Ihsa-xFCRsb5lNWZxrFw0vo9mh18akNqDU32gZkNyPkS1j6x9-39IvXValsJQ7_3J-yAJPqbAFlLYIR9YIuL8SHLuwkIwIa3AbNsDll68p_8oA2aqlrhyf2kw6N_fN1h-GhQilzLkZVdX40uUpV-CBPjp3EgzMuV0AERJB2JdYjGNch4_LxOJCufgpgtGwnfq7z8a1QbCpOd_oNcyGvErzs1bUGq1lQeVh5QNkEwojWftBMOherbC9XR3m-7cLTZUAwnSI9ITonmC7UO3gN6Ro8TQwfIh59XKNcfelWrWJberFs0AB2ba5lIa_0O0]--></g></svg>