<?xml version="1.0" encoding="windows-1252" standalone="no"?>
<svg xmlns="http://www.w3.org/2000/svg" xmlns:xlink="http://www.w3.org/1999/xlink" contentStyleType="text/css" height="433px" preserveAspectRatio="none" style="width:859px;height:433px;background:#FFFFFF;" version="1.1" viewBox="0 0 859 433" width="859px" zoomAndPan="magnify"><defs/><g><!--class dto:Exchange_currencyShape--><g id="elem_dto:Exchange_currencyShape"><rect codeLine="9" fill="#82C3EC" height="83.1875" id="dto:Exchange_currencyShape" rx="2.5" ry="2.5" style="stroke:#181818;stroke-width:0.5;" width="296" x="7" y="164.0659"/><text fill="#000000" font-family="sans-serif" font-size="14" lengthAdjust="spacing" textLength="213" x="48.5" y="182.061">dto:Exchange_currencyShape</text><line style="stroke:#181818;stroke-width:0.5;" x1="8" x2="302" y1="190.3628" y2="190.3628"/><text fill="#000000" font-family="sans-serif" font-size="14" lengthAdjust="spacing" textLength="284" x="13" y="207.3579">dto:exchange_rate  : xsd:decimal  [0..1]</text><text fill="#000000" font-family="sans-serif" font-size="14" lengthAdjust="spacing" textLength="223" x="13" y="223.6548">dto:sum_1  : xsd:decimal  [1..1]</text><text fill="#000000" font-family="sans-serif" font-size="14" lengthAdjust="spacing" textLength="222" x="13" y="239.9517">dto:sum_2  : xsd:decimal  [1..1]</text></g><!--class ecrm:E21_Person--><g id="elem_ecrm:E21_Person"><rect fill="#F1F1F1" height="26.2969" id="ecrm:E21_Person" rx="2.5" ry="2.5" style="stroke:#181818;stroke-width:0.5;" width="130" x="660.5" y="9.5659"/><text fill="#000000" font-family="sans-serif" font-size="14" lengthAdjust="spacing" textLength="124" x="663.5" y="27.561">ecrm:E21_Person</text></g><!--class ecrm:E53_Place--><g id="elem_ecrm:E53_Place"><rect fill="#F1F1F1" height="26.2969" id="ecrm:E53_Place" rx="2.5" ry="2.5" style="stroke:#181818;stroke-width:0.5;" width="120" x="665.5" y="70.5659"/><text fill="#000000" font-family="sans-serif" font-size="14" lengthAdjust="spacing" textLength="114" x="668.5" y="88.561">ecrm:E53_Place</text></g><!--class ecrm:E39_Actor--><g id="elem_ecrm:E39_Actor"><rect fill="#F1F1F1" height="26.2969" id="ecrm:E39_Actor" rx="2.5" ry="2.5" style="stroke:#181818;stroke-width:0.5;" width="122" x="664.5" y="131.5659"/><text fill="#000000" font-family="sans-serif" font-size="14" lengthAdjust="spacing" textLength="116" x="667.5" y="149.561">ecrm:E39_Actor</text></g><!--class ecrm:E52_Time-Span--><g id="elem_ecrm:E52_Time-Span"><rect fill="#F1F1F1" height="26.2969" id="ecrm:E52_Time-Span" rx="2.5" ry="2.5" style="stroke:#181818;stroke-width:0.5;" width="159" x="646" y="192.5659"/><text fill="#000000" font-family="sans-serif" font-size="14" lengthAdjust="spacing" textLength="153" x="649" y="210.561">ecrm:E52_Time-Span</text></g><!--class dto:CurrencyRestriction--><g id="elem_dto:CurrencyRestriction"><rect codeLine="20" fill="#FAB565" height="50.5938" id="dto:CurrencyRestriction" rx="2.5" ry="2.5" style="stroke:#181818;stroke-width:0.5;" width="234" x="608.5" y="254.0659"/><text fill="#000000" font-family="sans-serif" font-size="14" lengthAdjust="spacing" textLength="174" x="638.5" y="272.061">dto:CurrencyRestriction</text><line style="stroke:#181818;stroke-width:0.5;" x1="609.5" x2="841.5" y1="280.3628" y2="280.3628"/><text fill="#000000" font-family="sans-serif" font-size="14" lengthAdjust="spacing" textLength="222" x="614.5" y="297.3579">skos:inScheme  = dtv:currency</text></g><!--class ecrm:E7_Activity--><g id="elem_ecrm:E7_Activity"><rect fill="#F1F1F1" height="26.2969" id="ecrm:E7_Activity" rx="2.5" ry="2.5" style="stroke:#181818;stroke-width:0.5;" width="129" x="661" y="340.5659"/><text fill="#000000" font-family="sans-serif" font-size="14" lengthAdjust="spacing" textLength="123" x="664" y="358.561">ecrm:E7_Activity</text></g><!--class efrbroo:F23_Expression_Fragment--><g id="elem_efrbroo:F23_Expression_Fragment"><rect fill="#F1F1F1" height="26.2969" id="efrbroo:F23_Expression_Fragment" rx="2.5" ry="2.5" style="stroke:#181818;stroke-width:0.5;" width="253" x="599" y="401.5659"/><text fill="#000000" font-family="sans-serif" font-size="14" lengthAdjust="spacing" textLength="247" x="602" y="419.561">efrbroo:F23_Expression_Fragment</text></g><!--link dto:Exchange_currencyShape to ecrm:E21_Person--><g id="link_dto:Exchange_currencyShape_ecrm:E21_Person"><path codeLine="13" d="M196.594,163.9749 C230.065,132.4479 280.433,91.0089 333,69.5659 C441.707,25.2219 574.4673,19.1346 654.2263,19.9896 " fill="none" id="dto:Exchange_currencyShape-to-ecrm:E21_Person" style="stroke:#800000;stroke-width:1.0;"/><polygon fill="#800000" points="660.226,20.0539,651.2694,15.9577,655.2263,20.0003,651.1836,23.9572,660.226,20.0539" style="stroke:#800000;stroke-width:1.0;"/><text fill="#000000" font-family="sans-serif" font-size="13" lengthAdjust="spacing" textLength="156" x="373" y="19.6328">dto:money_owner [1..1]</text></g><!--link dto:Exchange_currencyShape to ecrm:E53_Place--><g id="link_dto:Exchange_currencyShape_ecrm:E53_Place"><path codeLine="14" d="M245.414,163.9429 C272.995,152.5429 303.8,141.2299 333,133.5659 C448.32,103.2979 581.7511,91.442 659.2351,86.718 " fill="none" id="dto:Exchange_currencyShape-to-ecrm:E53_Place" style="stroke:#800000;stroke-width:1.0;"/><polygon fill="#800000" points="665.224,86.3529,655.9973,82.908,660.2333,86.6572,656.4841,90.8932,665.224,86.3529" style="stroke:#800000;stroke-width:1.0;"/><text fill="#000000" font-family="sans-serif" font-size="13" lengthAdjust="spacing" textLength="188" x="357" y="90.6328">ecrm:P7_took_place_at [0..1]</text></g><!--link dto:Exchange_currencyShape to ecrm:E39_Actor--><g id="link_dto:Exchange_currencyShape_ecrm:E39_Actor"><path codeLine="15" d="M303.255,186.9869 C313.318,185.8019 323.306,184.6509 333,183.5659 C450.265,170.4399 581.568,157.8277 658.451,150.6497 " fill="none" id="dto:Exchange_currencyShape-to-ecrm:E39_Actor" style="stroke:#800000;stroke-width:1.0;"/><polygon fill="#800000" points="664.425,150.0919,655.0921,146.9459,659.4467,150.5567,655.8358,154.9112,664.425,150.0919" style="stroke:#800000;stroke-width:1.0;"/><text fill="#000000" font-family="sans-serif" font-size="13" lengthAdjust="spacing" textLength="180" x="361" y="154.6328">dto:exchange_service [0..1]</text></g><!--link dto:Exchange_currencyShape to ecrm:E52_Time-Span--><g id="link_dto:Exchange_currencyShape_ecrm:E52_Time-Span"><path codeLine="16" d="M303.142,205.5659 C412.532,205.5659 551.546,205.5659 639.781,205.5659 " fill="none" id="dto:Exchange_currencyShape-to-ecrm:E52_Time-Span" style="stroke:#800000;stroke-width:1.0;"/><polygon fill="#800000" points="645.781,205.5659,636.781,201.5659,640.781,205.5659,636.781,209.5659,645.781,205.5659" style="stroke:#800000;stroke-width:1.0;"/><text fill="#000000" font-family="sans-serif" font-size="13" lengthAdjust="spacing" textLength="194" x="354" y="201.6328">ecrm:P4_has_time-span [0..1]</text></g><!--link dto:Exchange_currencyShape to dto:CurrencyRestriction--><g id="link_dto:Exchange_currencyShape_dto:CurrencyRestriction"><path codeLine="17" d="M303.479,240.4669 C313.442,242.3389 323.35,244.0639 333,245.5659 C425.018,259.8919 524.2253,268.2228 602.3843,273.2368 " fill="none" id="dto:Exchange_currencyShape-to-dto:CurrencyRestriction" style="stroke:#800000;stroke-width:1.0;"/><polygon fill="#800000" points="608.372,273.6209,599.6465,269.0529,603.3823,273.3008,599.1344,277.0365,608.372,273.6209" style="stroke:#800000;stroke-width:1.0;"/><text fill="#000000" font-family="sans-serif" font-size="13" lengthAdjust="spacing" textLength="170" x="366" y="226.6328">dto:source_currency [1..1]</text><text fill="#000000" font-family="sans-serif" font-size="13" lengthAdjust="spacing" textLength="166" x="366" y="241.7656">dto:target_currency [1..1]</text></g><!--link dto:Exchange_currencyShape to ecrm:E7_Activity--><g id="link_dto:Exchange_currencyShape_ecrm:E7_Activity"><path codeLine="18" d="M211.967,247.1979 C245.373,269.8249 289.623,296.0749 333,310.5659 C444.063,347.668 575.7271,354.3451 654.7041,354.7186 " fill="none" id="dto:Exchange_currencyShape-to-ecrm:E7_Activity" style="stroke:#800000;stroke-width:1.0;"/><polygon fill="#800000" points="660.704,354.747,651.723,350.7045,655.7041,354.7234,651.6852,358.7044,660.704,354.747" style="stroke:#800000;stroke-width:1.0;"/><text fill="#000000" font-family="sans-serif" font-size="13" lengthAdjust="spacing" textLength="234" x="334" y="291.6328">ecrm:P183i_starts_after_the_end_of</text><text fill="#000000" font-family="sans-serif" font-size="13" lengthAdjust="spacing" textLength="193" x="334" y="306.7656">ecrm:P9i_forms_part_of [0..1]</text></g><!--link dto:Exchange_currencyShape to efrbroo:F23_Expression_Fragment--><g id="link_dto:Exchange_currencyShape_efrbroo:F23_Expression_Fragment"><path codeLine="19" d="M185.889,247.3069 C217.434,287.7409 271.099,347.0075 333,375.5659 C415.955,413.8379 513.095,422.7796 592.684,422.5773 " fill="none" id="dto:Exchange_currencyShape-to-efrbroo:F23_Expression_Fragment" style="stroke:#800000;stroke-width:1.0;"/><polygon fill="#800000" points="598.684,422.5621,589.6739,418.5849,593.684,422.5748,589.6942,426.5849,598.684,422.5621" style="stroke:#800000;stroke-width:1.0;"/><text fill="#000000" font-family="sans-serif" font-size="13" lengthAdjust="spacing" textLength="226" x="338" y="371.6328">ecrm:P70i_is_documented_in [1..1]</text></g><!--SRC=[dLHTRzem57tdLtZqSQ9AGbdRRAk447IJrWsLLdlOfYlZt12Bs8wkBr_xzNDAAQYiLU7DkUVat2yVbvYpO2T8JmeMcIPKh9rjU6HXfK5VIOKZh2H9TYIiizZmKsthW16gbDuFdEMH_eiYFckyop3N5iMthzTVxdxSThzVztVfpbH18D1vLQAOcJBPGHSagnlqNaxmfywu474KxS1T8hVekJ9KSN8ZoRrUf6Zqwjf4CsENzfUga7Q2e6P4QDLgLCWAc-9aBDKqlKXK6zN7nglKLDGeRj2G24K8BdsMPgYqaQKGlwBJq_YF46zHyZC3yRv2V9X2SgH2gtKbcgZ8fFqaXY6ITtQZQyBqLk0M5kdJ_ViewaPN1ujssZ0imqvgpOV8y1pOkIbKTHGaFob71ogtBw6hmfBtDkAHvbhXqSAT1EwqmTQeadPRzXaKqWFNGBXazWZrcj1xZD-YPz8F1dlQefkHslxvVEA_ovh4aYR8BvBUtEDvFJizrxpQTXXVj3Nua84zo9oHW0i4j1cuFAHVaourv8wCXs0n3i0nKyvf74oR3f8sz9SL1QE7CS20vCI45s7dfaGQj8VCgLaDO0RQxdMyO-x_3dVjx5oEEnywZyv-OGb-wdogxKWLQ8AbFuUjpDDD0o5JeJCKIfCgSNqso8NB_Fe3JSMh43BZuA5_]--></g></svg>